<mxfile host="app.diagrams.net" modified="2020-07-29T13:20:25.345Z" agent="5.0 (X11; Linux x86_64) AppleWebKit/537.36 (KHTML, like Gecko) Chrome/83.0.4103.61 Safari/537.36" etag="uVOZcgHVG0fFCYk6-vBT" version="13.5.5" type="github">
  <diagram id="C5RBs43oDa-KdzZeNtuy" name="Page-1">
    <mxGraphModel dx="1312" dy="761" grid="1" gridSize="10" guides="1" tooltips="1" connect="1" arrows="1" fold="1" page="1" pageScale="1" pageWidth="827" pageHeight="1169" math="0" shadow="0">
      <root>
        <mxCell id="WIyWlLk6GJQsqaUBKTNV-0" />
        <mxCell id="WIyWlLk6GJQsqaUBKTNV-1" parent="WIyWlLk6GJQsqaUBKTNV-0" />
        <mxCell id="UG-tVY1gUU-r8QUvnPH0-43" value="" style="edgeStyle=orthogonalEdgeStyle;rounded=0;jumpStyle=none;orthogonalLoop=1;jettySize=auto;shadow=0;startSize=6;align=center;verticalAlign=middle;html=1;labelBorderColor=none;fontStyle=1" edge="1" parent="WIyWlLk6GJQsqaUBKTNV-1" source="UG-tVY1gUU-r8QUvnPH0-16" target="UG-tVY1gUU-r8QUvnPH0-12">
          <mxGeometry relative="1" as="geometry" />
        </mxCell>
        <mxCell id="UG-tVY1gUU-r8QUvnPH0-12" value="CsWorker" style="html=1;" vertex="1" parent="WIyWlLk6GJQsqaUBKTNV-1">
          <mxGeometry x="340" y="40" width="110" height="50" as="geometry" />
        </mxCell>
        <mxCell id="UG-tVY1gUU-r8QUvnPH0-16" value="Project" style="swimlane;fontStyle=0;childLayout=stackLayout;horizontal=1;startSize=26;fillColor=none;horizontalStack=0;resizeParent=1;resizeParentMax=0;resizeLast=0;collapsible=1;marginBottom=0;" vertex="1" parent="WIyWlLk6GJQsqaUBKTNV-1">
          <mxGeometry x="282.5" y="230" width="225" height="130" as="geometry">
            <mxRectangle x="282.5" y="370" width="50" height="40" as="alternateBounds" />
          </mxGeometry>
        </mxCell>
        <mxCell id="UG-tVY1gUU-r8QUvnPH0-17" value="+ segments: Labels&#xa;" style="text;strokeColor=none;fillColor=none;align=left;verticalAlign=top;spacingLeft=4;spacingRight=4;overflow=hidden;rotatable=0;points=[[0,0.5],[1,0.5]];portConstraint=eastwest;" vertex="1" parent="UG-tVY1gUU-r8QUvnPH0-16">
          <mxGeometry y="26" width="225" height="26" as="geometry" />
        </mxCell>
        <mxCell id="UG-tVY1gUU-r8QUvnPH0-18" value="+ responsiblePerson: CsWorker[]&#xa;" style="text;strokeColor=none;fillColor=none;align=left;verticalAlign=top;spacingLeft=4;spacingRight=4;overflow=hidden;rotatable=0;points=[[0,0.5],[1,0.5]];portConstraint=eastwest;" vertex="1" parent="UG-tVY1gUU-r8QUvnPH0-16">
          <mxGeometry y="52" width="225" height="26" as="geometry" />
        </mxCell>
        <mxCell id="UG-tVY1gUU-r8QUvnPH0-19" value="+ deleted: boolean" style="text;strokeColor=none;fillColor=none;align=left;verticalAlign=top;spacingLeft=4;spacingRight=4;overflow=hidden;rotatable=0;points=[[0,0.5],[1,0.5]];portConstraint=eastwest;" vertex="1" parent="UG-tVY1gUU-r8QUvnPH0-16">
          <mxGeometry y="78" width="225" height="26" as="geometry" />
        </mxCell>
        <mxCell id="UG-tVY1gUU-r8QUvnPH0-23" value="+ lastLoginAt: Date" style="text;strokeColor=none;fillColor=none;align=left;verticalAlign=top;spacingLeft=4;spacingRight=4;overflow=hidden;rotatable=0;points=[[0,0.5],[1,0.5]];portConstraint=eastwest;" vertex="1" parent="UG-tVY1gUU-r8QUvnPH0-16">
          <mxGeometry y="104" width="225" height="26" as="geometry" />
        </mxCell>
        <mxCell id="UG-tVY1gUU-r8QUvnPH0-34" value="1" style="endArrow=openThin;html=1;endSize=12;startArrow=diamondThin;startSize=14;startFill=0;align=left;verticalAlign=bottom;entryX=0.536;entryY=1.038;entryDx=0;entryDy=0;entryPerimeter=0;shadow=0;sketch=0;endFill=0;" edge="1" parent="WIyWlLk6GJQsqaUBKTNV-1" source="UG-tVY1gUU-r8QUvnPH0-24" target="UG-tVY1gUU-r8QUvnPH0-23">
          <mxGeometry x="-1" y="-7" relative="1" as="geometry">
            <mxPoint x="400" y="410" as="sourcePoint" />
            <mxPoint x="490" y="270" as="targetPoint" />
            <mxPoint as="offset" />
          </mxGeometry>
        </mxCell>
        <mxCell id="UG-tVY1gUU-r8QUvnPH0-36" value="Annotation" style="swimlane;fontStyle=1;align=center;verticalAlign=top;childLayout=stackLayout;horizontal=1;startSize=26;horizontalStack=0;resizeParent=1;resizeParentMax=0;resizeLast=0;collapsible=1;marginBottom=0;" vertex="1" parent="WIyWlLk6GJQsqaUBKTNV-1">
          <mxGeometry x="10" y="278" width="160" height="34" as="geometry" />
        </mxCell>
        <mxCell id="UG-tVY1gUU-r8QUvnPH0-38" value="" style="line;strokeWidth=1;fillColor=none;align=left;verticalAlign=middle;spacingTop=-1;spacingLeft=3;spacingRight=3;rotatable=0;labelPosition=right;points=[];portConstraint=eastwest;" vertex="1" parent="UG-tVY1gUU-r8QUvnPH0-36">
          <mxGeometry y="26" width="160" height="8" as="geometry" />
        </mxCell>
        <mxCell id="UG-tVY1gUU-r8QUvnPH0-40" value="Relation" style="endArrow=open;html=1;endSize=12;startArrow=diamondThin;startSize=14;startFill=0;exitX=1;exitY=0.5;exitDx=0;exitDy=0;entryX=0;entryY=0.5;entryDx=0;entryDy=0;" edge="1" parent="WIyWlLk6GJQsqaUBKTNV-1" source="UG-tVY1gUU-r8QUvnPH0-36" target="UG-tVY1gUU-r8QUvnPH0-18">
          <mxGeometry relative="1" as="geometry">
            <mxPoint x="330" y="270" as="sourcePoint" />
            <mxPoint x="280" y="295" as="targetPoint" />
          </mxGeometry>
        </mxCell>
        <mxCell id="UG-tVY1gUU-r8QUvnPH0-41" value="0..n" style="edgeLabel;resizable=0;html=1;align=left;verticalAlign=top;" connectable="0" vertex="1" parent="UG-tVY1gUU-r8QUvnPH0-40">
          <mxGeometry x="-1" relative="1" as="geometry" />
        </mxCell>
        <mxCell id="UG-tVY1gUU-r8QUvnPH0-42" value="1" style="edgeLabel;resizable=0;html=1;align=right;verticalAlign=top;" connectable="0" vertex="1" parent="UG-tVY1gUU-r8QUvnPH0-40">
          <mxGeometry x="1" relative="1" as="geometry" />
        </mxCell>
        <mxCell id="UG-tVY1gUU-r8QUvnPH0-20" value="Relation" style="endArrow=open;html=1;endSize=12;startArrow=diamondThin;startSize=14;startFill=0;exitX=0.5;exitY=1;exitDx=0;exitDy=0;entryX=0.5;entryY=0;entryDx=0;entryDy=0;jumpStyle=arc;fontStyle=0;verticalAlign=middle;horizontal=0;strokeWidth=1;jumpSize=5;" edge="1" parent="WIyWlLk6GJQsqaUBKTNV-1" source="UG-tVY1gUU-r8QUvnPH0-12" target="UG-tVY1gUU-r8QUvnPH0-16">
          <mxGeometry relative="1" as="geometry">
            <mxPoint x="330" y="400" as="sourcePoint" />
            <mxPoint x="400" y="340" as="targetPoint" />
          </mxGeometry>
        </mxCell>
        <mxCell id="UG-tVY1gUU-r8QUvnPH0-21" value="0..n" style="edgeLabel;resizable=0;html=1;align=left;verticalAlign=top;" connectable="0" vertex="1" parent="UG-tVY1gUU-r8QUvnPH0-20">
          <mxGeometry x="-1" relative="1" as="geometry">
            <mxPoint x="5" as="offset" />
          </mxGeometry>
        </mxCell>
        <mxCell id="UG-tVY1gUU-r8QUvnPH0-22" value="1" style="edgeLabel;resizable=0;html=1;align=right;verticalAlign=top;" connectable="0" vertex="1" parent="UG-tVY1gUU-r8QUvnPH0-20">
          <mxGeometry x="1" relative="1" as="geometry">
            <mxPoint x="19" y="-20" as="offset" />
          </mxGeometry>
        </mxCell>
        <mxCell id="UG-tVY1gUU-r8QUvnPH0-24" value="ActivityLog" style="swimlane;fontStyle=0;childLayout=stackLayout;horizontal=1;startSize=26;fillColor=none;horizontalStack=0;resizeParent=1;resizeParentMax=0;resizeLast=0;collapsible=1;marginBottom=0;" vertex="1" parent="WIyWlLk6GJQsqaUBKTNV-1">
          <mxGeometry x="336" y="540" width="134" height="52" as="geometry" />
        </mxCell>
        <mxCell id="UG-tVY1gUU-r8QUvnPH0-25" value="+ logs: ILog[]" style="text;strokeColor=none;fillColor=none;align=left;verticalAlign=top;spacingLeft=4;spacingRight=4;overflow=hidden;rotatable=0;points=[[0,0.5],[1,0.5]];portConstraint=eastwest;" vertex="1" parent="UG-tVY1gUU-r8QUvnPH0-24">
          <mxGeometry y="26" width="134" height="26" as="geometry" />
        </mxCell>
        <mxCell id="UG-tVY1gUU-r8QUvnPH0-44" value="Alert" style="swimlane;fontStyle=0;childLayout=stackLayout;horizontal=1;startSize=26;fillColor=none;horizontalStack=0;resizeParent=1;resizeParentMax=0;resizeLast=0;collapsible=1;marginBottom=0;" vertex="1" parent="WIyWlLk6GJQsqaUBKTNV-1">
          <mxGeometry x="560" y="240" width="140" height="78" as="geometry" />
        </mxCell>
        <mxCell id="UG-tVY1gUU-r8QUvnPH0-45" value="+ title: string" style="text;strokeColor=none;fillColor=none;align=left;verticalAlign=top;spacingLeft=4;spacingRight=4;overflow=hidden;rotatable=0;points=[[0,0.5],[1,0.5]];portConstraint=eastwest;" vertex="1" parent="UG-tVY1gUU-r8QUvnPH0-44">
          <mxGeometry y="26" width="140" height="26" as="geometry" />
        </mxCell>
        <mxCell id="UG-tVY1gUU-r8QUvnPH0-51" value="+ directMessage(): void" style="text;strokeColor=none;fillColor=none;align=left;verticalAlign=top;spacingLeft=4;spacingRight=4;overflow=hidden;rotatable=0;points=[[0,0.5],[1,0.5]];portConstraint=eastwest;" vertex="1" parent="UG-tVY1gUU-r8QUvnPH0-44">
          <mxGeometry y="52" width="140" height="26" as="geometry" />
        </mxCell>
        <mxCell id="UG-tVY1gUU-r8QUvnPH0-48" value="Relation" style="endArrow=open;html=1;endSize=12;startArrow=diamondThin;startSize=14;startFill=0;edgeStyle=orthogonalEdgeStyle;shadow=0;strokeWidth=1;align=center;entryX=1;entryY=0.5;entryDx=0;entryDy=0;" edge="1" parent="WIyWlLk6GJQsqaUBKTNV-1" target="UG-tVY1gUU-r8QUvnPH0-12">
          <mxGeometry relative="1" as="geometry">
            <mxPoint x="640" y="240" as="sourcePoint" />
            <mxPoint x="610" y="110" as="targetPoint" />
            <Array as="points">
              <mxPoint x="640" y="65" />
            </Array>
          </mxGeometry>
        </mxCell>
        <mxCell id="UG-tVY1gUU-r8QUvnPH0-49" value="0..n" style="edgeLabel;resizable=0;html=1;align=left;verticalAlign=top;" connectable="0" vertex="1" parent="UG-tVY1gUU-r8QUvnPH0-48">
          <mxGeometry x="-1" relative="1" as="geometry">
            <mxPoint x="10" y="-30" as="offset" />
          </mxGeometry>
        </mxCell>
        <mxCell id="UG-tVY1gUU-r8QUvnPH0-50" value="1" style="edgeLabel;resizable=0;html=1;align=right;verticalAlign=top;" connectable="0" vertex="1" parent="UG-tVY1gUU-r8QUvnPH0-48">
          <mxGeometry x="1" relative="1" as="geometry" />
        </mxCell>
        <mxCell id="UG-tVY1gUU-r8QUvnPH0-53" value="Lead" style="swimlane;fontStyle=1;align=center;verticalAlign=top;childLayout=stackLayout;horizontal=1;startSize=26;horizontalStack=0;resizeParent=1;resizeParentMax=0;resizeLast=0;collapsible=1;marginBottom=0;" vertex="1" parent="WIyWlLk6GJQsqaUBKTNV-1">
          <mxGeometry x="520" y="440" width="250" height="138" as="geometry" />
        </mxCell>
        <mxCell id="UG-tVY1gUU-r8QUvnPH0-54" value="+ state: {Cold, Hot, Active, NotInterested}" style="text;strokeColor=none;fillColor=none;align=left;verticalAlign=top;spacingLeft=4;spacingRight=4;overflow=hidden;rotatable=0;points=[[0,0.5],[1,0.5]];portConstraint=eastwest;" vertex="1" parent="UG-tVY1gUU-r8QUvnPH0-53">
          <mxGeometry y="26" width="250" height="26" as="geometry" />
        </mxCell>
        <mxCell id="UG-tVY1gUU-r8QUvnPH0-57" value="+ data: LeadData" style="text;strokeColor=none;fillColor=none;align=left;verticalAlign=top;spacingLeft=4;spacingRight=4;overflow=hidden;rotatable=0;points=[[0,0.5],[1,0.5]];portConstraint=eastwest;" vertex="1" parent="UG-tVY1gUU-r8QUvnPH0-53">
          <mxGeometry y="52" width="250" height="26" as="geometry" />
        </mxCell>
        <mxCell id="UG-tVY1gUU-r8QUvnPH0-55" value="" style="line;strokeWidth=1;fillColor=none;align=left;verticalAlign=middle;spacingTop=-1;spacingLeft=3;spacingRight=3;rotatable=0;labelPosition=right;points=[];portConstraint=eastwest;" vertex="1" parent="UG-tVY1gUU-r8QUvnPH0-53">
          <mxGeometry y="78" width="250" height="8" as="geometry" />
        </mxCell>
        <mxCell id="UG-tVY1gUU-r8QUvnPH0-56" value="+ createAccount(): void" style="text;strokeColor=none;fillColor=none;align=left;verticalAlign=top;spacingLeft=4;spacingRight=4;overflow=hidden;rotatable=0;points=[[0,0.5],[1,0.5]];portConstraint=eastwest;" vertex="1" parent="UG-tVY1gUU-r8QUvnPH0-53">
          <mxGeometry y="86" width="250" height="26" as="geometry" />
        </mxCell>
        <mxCell id="UG-tVY1gUU-r8QUvnPH0-58" value="+ markAsNoInterested(): void" style="text;strokeColor=none;fillColor=none;align=left;verticalAlign=top;spacingLeft=4;spacingRight=4;overflow=hidden;rotatable=0;points=[[0,0.5],[1,0.5]];portConstraint=eastwest;" vertex="1" parent="UG-tVY1gUU-r8QUvnPH0-53">
          <mxGeometry y="112" width="250" height="26" as="geometry" />
        </mxCell>
        <mxCell id="UG-tVY1gUU-r8QUvnPH0-60" value="ReminderService&amp;nbsp;&lt;br&gt;Creates alert in some time" style="verticalAlign=top;align=left;spacingTop=8;spacingLeft=2;spacingRight=12;shape=cube;size=10;direction=south;fontStyle=4;html=1;" vertex="1" parent="WIyWlLk6GJQsqaUBKTNV-1">
          <mxGeometry x="30" y="510" width="180" height="120" as="geometry" />
        </mxCell>
      </root>
    </mxGraphModel>
  </diagram>
</mxfile>
